<svg width="193" height="171" viewBox="0 0 193 171" fill="none" xmlns="http://www.w3.org/2000/svg">
<g clip-path="url(#clip0_1_281)">
<path d="M78.73 67.9L88.03 50.73H101.46C101.46 37.2756 96.1152 24.3722 86.6015 14.8585C77.0878 5.34475 64.1844 0 50.73 0C37.2756 0 24.3722 5.34475 14.8585 14.8585C5.34475 24.3722 0 37.2756 0 50.73V116.34C0 119.353 1.19685 122.242 3.32727 124.373C5.45768 126.503 8.34714 127.7 11.36 127.7C14.3729 127.7 17.2623 126.503 19.3927 124.373C21.5231 122.242 22.72 119.353 22.72 116.34V50.75C22.72 47.073 23.4442 43.432 24.8514 40.0349C26.2585 36.6377 28.321 33.551 30.921 30.951C33.521 28.351 36.6077 26.2885 40.0049 24.8814C43.402 23.4742 47.043 22.75 50.72 22.75C54.397 22.75 58.038 23.4742 61.4351 24.8814C64.8323 26.2885 67.9189 28.351 70.519 30.951C73.119 33.551 75.1815 36.6377 76.5886 40.0349C77.9958 43.432 78.72 47.073 78.72 50.75L78.73 67.9Z" fill="#F0B70D"/>
<path d="M168.83 105H113.83C110.562 104.997 107.429 103.699 105.118 101.389C102.806 99.0795 101.505 95.9474 101.5 92.6798V63.2998H92.18L78.73 87.8098V94.2398C78.7406 103.111 82.2692 111.615 88.5419 117.888C94.8146 124.161 103.319 127.689 112.19 127.7H168.83C171.843 127.7 174.732 126.503 176.863 124.373C178.993 122.242 180.19 119.353 180.19 116.34C180.19 113.327 178.993 110.437 176.863 108.307C174.732 106.177 171.843 104.98 168.83 104.98V105Z" fill="#BE9C25"/>
<path d="M180.19 18.52V22.19C180.2 26.9393 179.271 31.6437 177.455 36.0322C175.639 40.4207 172.973 44.4065 169.61 47.76L126.32 91.06C124.604 87.2776 124.085 83.0614 124.832 78.9758C125.579 74.8903 127.557 71.1305 130.5 68.2L180.19 18.52Z" fill="#88984A"/>
<path d="M115.81 42L142.02 68.2C143.927 70.0916 145.439 72.3429 146.469 74.8234C147.499 77.3039 148.026 79.9642 148.02 82.65C148.031 85.5469 147.427 88.4131 146.25 91.06L121.46 66.26C120.011 64.8188 118.863 63.1044 118.082 61.2161C117.301 59.3279 116.903 57.3034 116.91 55.26C116.896 50.8178 116.528 46.3838 115.81 42Z" fill="#88984A"/>
<path d="M151.388 18.5261L143.377 26.5376L151.388 34.5491L159.4 26.5376L151.388 18.5261Z" fill="#88984A"/>
<path d="M136.539 33.3772L128.527 41.3887L136.539 49.4002L144.55 41.3887L136.539 33.3772Z" fill="#88984A"/>
<path d="M18.86 151.432V169.922C17.5318 169.924 16.2252 169.586 15.0647 168.94C13.9041 168.294 12.9282 167.362 12.23 166.232L3.64 152.382L4.32 169.922C3.17335 169.919 2.07456 169.462 1.26469 168.65C0.454819 167.839 -3.05792e-06 166.739 0 165.592L0 147.032C1.59027 147.031 3.15322 147.446 4.53375 148.235C5.91428 149.024 7.0644 150.161 7.87 151.532L15.13 163.842L14.47 147.032C15.6352 147.035 16.7518 147.499 17.5748 148.324C18.3978 149.149 18.86 150.267 18.86 151.432ZM40.11 163.522C40.22 164.902 40.32 166.152 40.39 166.632C39.6233 166.762 38.8476 166.832 38.07 166.842C36.9997 166.894 35.932 166.695 34.9514 166.263C33.9708 165.831 33.1042 165.177 32.42 164.352C31.0633 162.704 30.3367 160.627 30.37 158.492C30.3103 156.482 30.9579 154.514 32.2 152.932C32.8801 152.147 33.7344 151.532 34.6946 151.136C35.6548 150.74 36.6943 150.575 37.73 150.652C38.1 150.652 38.49 150.652 38.88 150.702C39.9162 150.792 40.9476 150.483 41.7636 149.838C42.5796 149.193 43.1184 148.261 43.27 147.232C41.6285 146.87 39.9507 146.699 38.27 146.722C34.27 146.722 31.1267 147.945 28.84 150.392C26.619 152.72 25.3984 155.825 25.44 159.042C25.3868 162.015 26.5078 164.89 28.56 167.042C30.64 169.249 33.6933 170.355 37.72 170.362C39.5327 170.323 41.3362 170.092 43.1 169.672C43.5549 169.574 43.9615 169.321 44.2499 168.956C44.5382 168.591 44.6903 168.137 44.68 167.672C44.68 164.752 44.68 159.962 44.68 158.482C44.0414 158.489 43.4112 158.628 42.8288 158.89C42.2464 159.152 41.7244 159.532 41.2954 160.005C40.8664 160.478 40.5397 161.035 40.3357 161.64C40.1317 162.245 40.0549 162.886 40.11 163.522ZM71.65 169.922C70.0391 169.932 68.4719 169.399 67.2017 168.408C65.9314 167.417 65.0325 166.027 64.65 164.462L64.38 163.352H56.31L55.94 164.792C55.5737 166.259 54.7267 167.561 53.5342 168.491C52.3416 169.421 50.8722 169.925 49.36 169.922L57.1 148.362C57.2392 147.97 57.497 147.632 57.8375 147.394C58.178 147.155 58.5844 147.029 59 147.032H59.88C61.1465 147.034 62.38 147.436 63.4039 148.181C64.4278 148.927 65.1895 149.977 65.58 151.182L71.65 169.922ZM63.53 159.992L60.53 150.182L57.13 159.992H63.53ZM82.24 160.322C82.24 162.992 81.75 164.812 80.75 165.772C80.0111 166.164 79.1865 166.367 78.35 166.362C77.425 166.436 76.5562 166.836 75.8973 167.489C75.2385 168.142 74.832 169.008 74.75 169.932V170.032C75.7555 170.274 76.7858 170.398 77.82 170.402C80.7 170.402 82.82 169.692 84.17 168.292C85.78 166.652 86.58 163.872 86.58 159.972C86.58 154.845 86.65 150.532 86.79 147.032C86.1726 147.032 85.5614 147.155 84.9924 147.395C84.4234 147.634 83.908 147.985 83.4766 148.427C83.0452 148.868 82.7065 149.392 82.4804 149.966C82.2542 150.541 82.1453 151.155 82.16 151.772C82.2133 154.319 82.24 157.169 82.24 160.322ZM94.16 152.012V169.922C95.4861 169.922 96.7579 169.395 97.6955 168.458C98.6332 167.52 99.16 166.248 99.16 164.922V147.032C97.8374 147.032 96.5686 147.556 95.6315 148.489C94.6944 149.423 94.1653 150.689 94.16 152.012ZM117.4 147.012V169.902H132C132.018 169.41 131.935 168.919 131.756 168.461C131.576 168.002 131.305 167.585 130.958 167.235C130.611 166.886 130.197 166.611 129.739 166.428C129.282 166.245 128.792 166.158 128.3 166.172L121.89 166.332L122.22 151.952C122.232 151.311 122.116 150.674 121.879 150.078C121.643 149.483 121.29 148.94 120.841 148.482C120.392 148.024 119.857 147.66 119.266 147.411C118.676 147.162 118.041 147.033 117.4 147.032V147.012ZM157.52 169.902C155.909 169.912 154.342 169.379 153.072 168.388C151.801 167.397 150.902 166.007 150.52 164.442L150.25 163.332H142.13L141.76 164.772C141.392 166.238 140.545 167.54 139.353 168.469C138.16 169.399 136.692 169.903 135.18 169.902L143 148.362C143.138 147.974 143.393 147.637 143.729 147.399C144.066 147.161 144.468 147.033 144.88 147.032H145.76C147.026 147.034 148.26 147.436 149.284 148.181C150.308 148.927 151.07 149.977 151.46 151.182L157.52 169.902ZM149.4 159.972C148.236 156.755 147.234 153.48 146.4 150.162C146.4 150.162 145.09 153.892 143.01 159.972H149.4ZM176.4 163.502C176.51 164.882 176.61 166.132 176.68 166.612C175.913 166.742 175.138 166.812 174.36 166.822C173.29 166.874 172.222 166.675 171.241 166.243C170.261 165.811 169.394 165.157 168.71 164.332C167.353 162.684 166.627 160.607 166.66 158.472C166.6 156.462 167.248 154.494 168.49 152.912C169.17 152.127 170.024 151.512 170.985 151.116C171.945 150.72 172.984 150.555 174.02 150.632C174.39 150.632 174.78 150.632 175.17 150.682C176.206 150.772 177.238 150.463 178.054 149.818C178.87 149.173 179.408 148.241 179.56 147.212C177.919 146.85 176.241 146.679 174.56 146.702C170.56 146.702 167.417 147.925 165.13 150.372C162.909 152.7 161.688 155.805 161.73 159.022C161.677 161.995 162.798 164.87 164.85 167.022C166.93 169.229 169.983 170.335 174.01 170.342C175.823 170.304 177.626 170.073 179.39 169.652C179.847 169.557 180.256 169.304 180.546 168.939C180.836 168.574 180.99 168.119 180.98 167.652C180.98 164.372 180.98 158.452 180.98 158.452C180.34 158.462 179.71 158.604 179.127 158.869C178.545 159.134 178.024 159.516 177.597 159.992C177.169 160.469 176.845 161.028 176.644 161.635C176.444 162.243 176.371 162.885 176.43 163.522L176.4 163.502ZM193 147.032C191.674 147.032 190.402 147.559 189.464 148.497C188.527 149.434 188 150.706 188 152.032V169.942C188.645 169.943 189.284 169.817 189.88 169.57C190.476 169.323 191.017 168.96 191.471 168.502C191.926 168.045 192.286 167.502 192.529 166.904C192.773 166.307 192.895 165.667 192.89 165.022C192.86 158.752 192.89 149.222 193 147.032Z" fill="#88984A"/>
</g>
<defs>
<clipPath id="clip0_1_281">
<rect width="193" height="170.402" fill="white"/>
</clipPath>
</defs>
</svg>
