<svg width="193" height="24" viewBox="0 0 193 24" fill="none" xmlns="http://www.w3.org/2000/svg">
<path d="M18.86 0.479999C18.7 3.38 18.62 7.01666 18.62 11.39C18.62 15.7633 18.7 19.7633 18.86 23.39H14.52C14.52 22.91 12.91 20.3733 9.69 15.78C6.31 10.92 4.38667 7.6 3.92 5.82H3.64C3.91712 8.1433 4.06402 10.4803 4.08 12.82C4.08 15.72 4.16 19.24 4.32 23.4H0C0.18 19.7733 0.266667 15.7733 0.26 11.4C0.26 7.16 0.18 3.48 0 0.479999H5.22C5.22 1.1 6.66667 3.57667 9.56 7.91C12.64 12.5167 14.41 15.64 14.87 17.28H15.13C14.8673 14.9557 14.7271 12.6191 14.71 10.28C14.71 7.1 14.63 3.85 14.47 0.509999L18.86 0.479999ZM39.76 11.97C39.9889 13.3822 40.1126 14.8095 40.13 16.24C40.1283 17.5245 40.2152 18.8075 40.39 20.08C39.6233 20.21 38.8476 20.2802 38.07 20.29C36.9989 20.3395 35.931 20.1394 34.9505 19.7056C33.97 19.2717 33.1037 18.6159 32.42 17.79C31.0577 16.1487 30.3302 14.0727 30.37 11.94C30.3105 9.92654 30.9579 7.95582 32.2 6.37C32.8821 5.58813 33.737 4.97592 34.6969 4.5819C35.6568 4.18789 36.6953 4.02289 37.73 4.1C39.4205 4.12597 41.1008 4.36793 42.73 4.82L43.27 0.669999C41.6285 0.308067 39.9507 0.136933 38.27 0.159999C34.27 0.159999 31.1267 1.38333 28.84 3.83C26.6208 6.15887 25.4006 9.26335 25.44 12.48C25.3857 15.4535 26.5069 18.3284 28.56 20.48C30.64 22.6933 33.6933 23.8 37.72 23.8C40.0879 23.7268 42.4383 23.3675 44.72 22.73C44.63 20.49 44.58 18.73 44.58 17.38C44.58 15.55 44.58 13.74 44.72 11.93L39.76 11.97ZM67.94 11.97C70.4067 18.9433 71.6433 22.7467 71.65 23.38H66C65.6634 21.1467 65.1279 18.948 64.4 16.81H56.31C55.5417 18.94 54.9856 21.1407 54.65 23.38H49.36C49.36 22.9267 50.73 19.1767 53.47 12.13C56.21 5.08333 57.5767 1.2 57.57 0.479999H64.22C64.22 1.14 65.46 4.96333 67.94 11.95V11.97ZM63.53 13.45C61.53 7.45 60.53 4.14 60.53 3.64H60.24C59.3714 6.96092 58.3334 10.2352 57.13 13.45H63.53ZM82.24 13.79C82.24 16.46 81.75 18.27 80.75 19.23C79.808 19.9829 78.6108 20.3414 77.41 20.23C76.5949 20.2209 75.7908 20.0403 75.05 19.7L74.74 23.48C75.7455 23.7218 76.7758 23.846 77.81 23.85C80.69 23.85 82.81 23.14 84.16 21.74C85.7667 20.1 86.57 17.3267 86.57 13.42C86.57 8.28667 86.64 3.97667 86.78 0.489999H82C82.1667 3.98333 82.2467 8.41 82.24 13.77V13.79ZM94.16 0.479999C94.3133 3.48 94.3867 7.11666 94.38 11.39C94.3733 15.6633 94.3 19.6633 94.16 23.39H99.16C99.0133 19.83 98.9367 15.83 98.93 11.39C98.9233 6.95 98.99 3.31333 99.13 0.479999H94.16ZM122.16 11.39C122.16 6.77667 122.23 3.14 122.37 0.479999H117.4C117.54 3.35333 117.61 6.99 117.61 11.39C117.61 16.2033 117.54 20.2033 117.4 23.39H132L132.14 19.56C128.54 19.74 125.14 19.82 121.89 19.82C122.05 17.7267 122.13 14.9167 122.13 11.39H122.16ZM153.83 11.95C156.31 18.9233 157.55 22.7267 157.55 23.36H151.9C151.563 21.1267 151.028 18.928 150.3 16.79H142.18C141.406 18.9184 140.85 21.1196 140.52 23.36H135.23C135.23 22.9067 136.6 19.1567 139.34 12.11C142.08 5.06333 143.447 1.18667 143.44 0.479999H150.09C150.09 1.14 151.327 4.96333 153.8 11.95H153.83ZM149.43 13.43C147.43 7.43 146.43 4.12 146.43 3.62H146.15C145.268 6.94166 144.217 10.216 143 13.43H149.43ZM176.11 11.97C176.339 13.3822 176.463 14.8095 176.48 16.24C176.478 17.5245 176.565 18.8075 176.74 20.08C175.973 20.21 175.198 20.2802 174.42 20.29C173.349 20.3395 172.281 20.1394 171.301 19.7056C170.32 19.2717 169.454 18.6159 168.77 17.79C167.408 16.1487 166.68 14.0727 166.72 11.94C166.66 9.92654 167.308 7.95582 168.55 6.37C169.232 5.58813 170.087 4.97592 171.047 4.5819C172.007 4.18789 173.045 4.02289 174.08 4.1C175.771 4.12597 177.451 4.36793 179.08 4.82L179.66 0.669999C178.019 0.308067 176.341 0.136933 174.66 0.159999C170.66 0.159999 167.517 1.38333 165.23 3.83C163.011 6.15887 161.791 9.26335 161.83 12.48C161.776 15.4535 162.897 18.3284 164.95 20.48C167.03 22.6933 170.083 23.8 174.11 23.8C176.478 23.7268 178.828 23.3675 181.11 22.73C181.02 20.49 180.97 18.73 180.97 17.38C180.97 15.55 181.02 13.74 181.11 11.93L176.11 11.97ZM193 0.479999H188C188.16 3.48 188.23 7.12 188.23 11.39C188.23 15.66 188.16 19.73 188 23.39H193C192.847 19.83 192.77 15.83 192.77 11.39C192.77 6.95 192.847 3.31333 193 0.479999Z" fill="#44481E"/>
</svg>
